<?xml version="1.0" standalone="no"?>
<!DOCTYPE svg PUBLIC "-//W3C//DTD SVG 20010904//EN"
 "http://www.w3.org/TR/2001/REC-SVG-20010904/DTD/svg10.dtd">
<svg version="1.0" xmlns="http://www.w3.org/2000/svg"
 width="200.000000pt" height="200.000000pt" viewBox="0 0 200.000000 200.000000"
 preserveAspectRatio="xMidYMid meet">
<metadata>
Created by potrace 1.14, written by Peter Selinger 2001-2017
</metadata>
<g transform="translate(0.000000,200.000000) scale(0.100000,-0.100000)"
fill="#000000" stroke="none">
<path d="M563 1520 c-38 -16 -43 -41 -43 -224 0 -193 6 -219 53 -236 41 -14
813 -14 854 0 47 17 53 43 53 239 0 161 -2 181 -19 202 l-19 24 -429 2 c-235
1 -438 -2 -450 -7z m0 -28 c-10 -10 -20 -17 -22 -16 -6 5 20 34 30 34 5 0 1
-8 -8 -18z m887 3 c19 -22 8 -25 -12 -3 -10 10 -14 18 -9 18 5 0 14 -7 21 -15z
m-15 -205 l0 -195 -435 0 -435 0 -3 185 c-1 101 0 190 2 197 4 11 92 13 438
11 l433 -3 0 -195z m-898 -87 c-1 -49 -3 -9 -3 87 0 96 2 136 3 88 2 -49 2
-127 0 -175z m930 0 c-1 -49 -3 -9 -3 87 0 96 2 136 3 88 2 -49 2 -127 0 -175z
m-467 -123 c376 0 430 2 444 16 9 8 16 11 16 5 0 -28 -50 -31 -460 -31 -410 0
-460 3 -460 31 0 6 7 3 16 -5 14 -14 68 -16 444 -16z"/>
<path d="M607 1423 c-22 -22 5 -93 35 -93 23 0 41 -26 33 -50 -5 -16 -14 -20
-33 -18 -23 3 -27 8 -27 36 0 17 -3 32 -8 32 -5 0 -7 -17 -5 -37 3 -33 7 -38
31 -41 16 -2 35 2 43 9 11 9 18 9 26 1 15 -15 61 -15 75 -1 8 8 13 8 17 0 9
-15 59 -14 74 1 9 9 15 9 24 0 16 -16 150 -16 166 0 12 12 17 124 6 152 -7 19
-64 22 -81 5 -8 -8 -13 -8 -17 0 -10 15 -73 14 -80 -1 -5 -10 -7 -10 -12 0 -7
15 -66 16 -81 1 -8 -8 -13 -8 -17 0 -10 15 -73 14 -80 -1 -5 -10 -7 -10 -12 0
-6 12 -66 17 -77 5z m41 -10 c-32 -5 -38 -36 -10 -52 19 -12 12 -14 -12 -5
-16 6 -22 45 -9 57 3 4 18 6 32 6 l26 -2 -27 -4z m118 -26 c1 -24 1 -24 -3 -3
-3 16 -12 26 -26 29 -18 3 -17 4 3 3 20 -1 25 -6 26 -29z m72 26 c-32 -5 -38
-36 -10 -52 19 -12 12 -14 -12 -5 -16 6 -22 45 -9 57 3 4 18 6 32 6 l26 -2
-27 -4z m120 -25 c2 -16 8 -28 13 -28 5 0 9 -4 9 -10 0 -5 -7 -10 -16 -10 -8
0 -12 5 -8 11 4 8 -1 9 -17 5 -20 -6 -21 -5 -6 4 25 16 22 48 -5 53 -20 3 -20
4 2 3 20 -1 26 -7 28 -28z m70 25 c-26 -4 -28 -8 -28 -48 l0 -44 -47 -3 c-40
-3 -48 -6 -48 -23 0 -18 7 -20 70 -20 l70 0 6 65 6 65 1 -57 c3 -86 1 -88 -83
-88 -65 0 -74 2 -80 20 -10 31 12 50 56 50 39 0 39 0 39 38 0 46 5 52 39 51
l26 -2 -27 -4z m-378 -23 c0 -5 -4 -10 -10 -10 -5 0 -10 5 -10 10 0 6 5 10 10
10 6 0 10 -4 10 -10z m22 -22 c-8 -8 -9 -4 -5 13 4 13 8 18 11 10 2 -7 -1 -18
-6 -23z m78 22 c0 -5 -4 -10 -10 -10 -5 0 -10 5 -10 10 0 6 5 10 10 10 6 0 10
-4 10 -10z m90 0 c0 -5 -4 -10 -10 -10 -5 0 -10 5 -10 10 0 6 5 10 10 10 6 0
10 -4 10 -10z m22 -22 c-8 -8 -9 -4 -5 13 4 13 8 18 11 10 2 -7 -1 -18 -6 -23z
m41 12 c3 -11 1 -18 -4 -14 -5 3 -9 12 -9 20 0 20 7 17 13 -6z m37 10 c0 -5
-4 -10 -10 -10 -5 0 -10 5 -10 10 0 6 5 10 10 10 6 0 10 -4 10 -10z m90 -50
l0 -60 -55 0 c-42 0 -55 3 -55 15 0 11 12 15 45 15 l45 0 0 45 c0 25 5 45 10
45 6 0 10 -27 10 -60z m-233 -12 c-10 -15 -12 -15 -23 0 -8 11 -8 19 -1 27 17
18 37 -5 24 -27z m-91 21 c10 -17 -13 -36 -27 -22 -12 12 -4 33 11 33 5 0 12
-5 16 -11z m190 0 c10 -17 -13 -36 -27 -22 -12 12 -4 33 11 33 5 0 12 -5 16
-11z m-131 -54 c0 -25 -4 -31 -27 -33 -19 -2 -28 2 -33 18 -8 27 12 52 39 48
16 -2 21 -10 21 -33z m95 20 c20 -24 3 -57 -28 -53 -27 3 -39 26 -28 54 7 18
40 18 56 -1z"/>
<path d="M714 1305 c-8 -20 4 -35 27 -35 14 0 19 7 19 25 0 18 -5 25 -20 25
-11 0 -23 -7 -26 -15z m36 -10 c0 -8 -4 -15 -10 -15 -5 0 -10 7 -10 15 0 8 5
15 10 15 6 0 10 -7 10 -15z"/>
<path d="M810 1295 c0 -22 4 -26 23 -23 14 2 22 10 22 23 0 13 -8 21 -22 23
-19 3 -23 -1 -23 -23z m30 0 c0 -8 -4 -15 -10 -15 -5 0 -10 7 -10 15 0 8 5 15
10 15 6 0 10 -7 10 -15z"/>
<path d="M1124 1403 c-4 -15 -2 -34 5 -46 9 -14 10 -22 2 -30 -15 -15 -14 -50
1 -65 15 -15 65 -16 74 -1 4 8 9 8 17 0 15 -15 60 -14 75 1 9 9 12 6 12 -17 0
-23 -3 -26 -12 -17 -17 17 -65 15 -76 -4 -8 -15 -10 -15 -15 0 -7 19 -57 22
-75 4 -15 -15 -15 -51 0 -66 15 -15 65 -16 74 -1 4 8 9 8 17 0 14 -14 60 -14
75 1 8 8 15 8 26 -1 8 -7 27 -11 43 -9 l28 3 3 88 c1 48 -1 87 -5 87 -4 0 -8
-37 -8 -82 0 -80 -1 -83 -24 -86 -32 -5 -41 12 -41 84 0 61 11 84 40 84 21 0
43 40 38 71 -2 19 -10 25 -37 27 -20 2 -38 -2 -43 -10 -8 -10 -11 -10 -15 0
-6 15 -65 16 -80 1 -8 -8 -13 -8 -17 0 -4 6 -23 11 -41 11 -29 0 -36 -4 -41
-27z m74 -12 c4 -23 -11 -41 -33 -41 -5 1 -2 5 8 11 25 15 22 47 -5 52 -20 3
-20 4 2 3 18 -1 26 -7 28 -25z m70 22 c-32 -5 -38 -36 -10 -52 19 -12 12 -14
-12 -5 -16 6 -22 45 -9 57 3 4 18 6 32 6 l26 -2 -27 -4z m120 -22 c4 -23 -11
-41 -33 -41 -5 1 -2 5 8 11 25 15 22 47 -5 52 -20 3 -20 4 2 3 18 -1 26 -7 28
-25z m-245 -11 c3 -11 1 -18 -4 -14 -5 3 -9 12 -9 20 0 20 7 17 13 -6z m37 10
c0 -5 -4 -10 -10 -10 -5 0 -10 5 -10 10 0 6 5 10 10 10 6 0 10 -4 10 -10z m90
0 c0 -5 -4 -10 -10 -10 -5 0 -10 5 -10 10 0 6 5 10 10 10 6 0 10 -4 10 -10z
m22 -22 c-8 -8 -9 -4 -5 13 4 13 8 18 11 10 2 -7 -1 -18 -6 -23z m41 12 c3
-11 1 -18 -4 -14 -5 3 -9 12 -9 20 0 20 7 17 13 -6z m37 10 c0 -5 -7 -10 -15
-10 -8 0 -15 5 -15 10 0 6 7 10 15 10 8 0 15 -4 15 -10z m-143 -62 c-10 -15
-12 -15 -23 0 -8 11 -8 19 -1 27 17 18 37 -5 24 -27z m99 21 c10 -17 -13 -36
-27 -22 -12 12 -4 33 11 33 5 0 12 -5 16 -11z m-131 -54 c0 -25 -4 -31 -27
-33 -19 -2 -28 2 -33 18 -8 27 12 52 39 48 16 -2 21 -10 21 -33z m95 20 c20
-24 3 -57 -28 -53 -27 3 -39 26 -28 54 7 18 40 18 56 -1z m-95 -120 c0 -25 -4
-31 -27 -33 -19 -2 -28 2 -33 18 -8 27 12 52 39 48 16 -2 21 -10 21 -33z m95
20 c20 -24 3 -57 -28 -53 -27 3 -39 26 -28 54 7 18 40 18 56 -1z"/>
<path d="M1144 1305 c-8 -20 4 -35 27 -35 14 0 19 7 19 25 0 18 -5 25 -20 25
-11 0 -23 -7 -26 -15z m36 -10 c0 -8 -4 -15 -10 -15 -5 0 -10 7 -10 15 0 8 5
15 10 15 6 0 10 -7 10 -15z"/>
<path d="M1240 1295 c0 -22 4 -26 23 -23 14 2 22 10 22 23 0 13 -8 21 -22 23
-19 3 -23 -1 -23 -23z m30 0 c0 -8 -4 -15 -10 -15 -5 0 -10 7 -10 15 0 8 5 15
10 15 6 0 10 -7 10 -15z"/>
<path d="M1144 1205 c-8 -20 4 -35 27 -35 14 0 19 7 19 25 0 18 -5 25 -20 25
-11 0 -23 -7 -26 -15z m36 -10 c0 -8 -4 -15 -10 -15 -5 0 -10 7 -10 15 0 8 5
15 10 15 6 0 10 -7 10 -15z"/>
<path d="M1240 1195 c0 -22 4 -26 23 -23 14 2 22 10 22 23 0 13 -8 21 -22 23
-19 3 -23 -1 -23 -23z m30 0 c0 -8 -4 -15 -10 -15 -5 0 -10 7 -10 15 0 8 5 15
10 15 6 0 10 -7 10 -15z"/>
<path d="M620 1295 c0 -22 4 -26 23 -23 14 2 22 10 22 23 0 13 -8 21 -22 23
-19 3 -23 -1 -23 -23z m30 0 c0 -8 -4 -15 -10 -15 -5 0 -10 7 -10 15 0 8 5 15
10 15 6 0 10 -7 10 -15z"/>
<path d="M1334 1306 c-3 -7 -4 -40 -2 -72 3 -52 5 -59 26 -62 21 -3 22 0 22
72 0 70 -2 76 -20 76 -11 0 -23 -6 -26 -14z m36 -62 c0 -48 -3 -65 -12 -62
-13 5 -23 89 -14 114 13 35 26 9 26 -52z"/>
<path d="M604 1226 c-3 -8 -4 -27 -2 -43 2 -22 9 -29 31 -31 16 -2 35 2 43 9
11 9 18 9 26 1 8 -8 55 -12 135 -12 104 0 125 3 130 16 5 15 7 15 15 0 11 -19
59 -21 76 -4 15 15 15 51 0 66 -17 17 -65 15 -76 -4 -8 -15 -10 -15 -15 0 -5
13 -26 16 -130 16 -82 0 -127 -4 -135 -12 -9 -9 -15 -9 -24 0 -17 17 -67 15
-74 -2z m66 -11 c20 -24 3 -57 -28 -53 -27 3 -39 26 -28 54 7 18 40 18 56 -1z
m285 -20 l0 -30 -119 0 c-100 0 -120 3 -129 17 -8 12 -7 21 3 32 11 14 32 16
129 14 l116 -3 0 -30z m95 20 c20 -24 3 -57 -28 -53 -27 3 -39 26 -28 54 7 18
40 18 56 -1z"/>
<path d="M620 1195 c0 -22 4 -26 23 -23 14 2 22 10 22 23 0 13 -8 21 -22 23
-19 3 -23 -1 -23 -23z m30 0 c0 -8 -4 -15 -10 -15 -5 0 -10 7 -10 15 0 8 5 15
10 15 6 0 10 -7 10 -15z"/>
<path d="M714 1205 c-12 -29 7 -35 122 -35 l114 0 0 25 0 25 -115 0 c-92 0
-117 -3 -121 -15z m226 -10 c0 -12 -18 -15 -105 -15 -87 0 -105 3 -105 15 0
12 18 15 105 15 87 0 105 -3 105 -15z"/>
<path d="M1000 1195 c0 -22 4 -26 23 -23 14 2 22 10 22 23 0 13 -8 21 -22 23
-19 3 -23 -1 -23 -23z m30 0 c0 -8 -4 -15 -10 -15 -5 0 -10 7 -10 15 0 8 5 15
10 15 6 0 10 -7 10 -15z"/>
<path d="M300 961 c-5 -11 -10 -44 -10 -74 0 -66 23 -94 67 -82 29 8 27 9 -19
19 -27 6 -28 9 -28 66 0 46 4 61 18 68 9 5 23 7 30 5 6 -3 12 0 12 6 0 20 -59
12 -70 -8z"/>
<path d="M402 898 c-2 -84 5 -107 29 -93 6 5 5 11 -5 18 -11 9 -16 34 -19 87
l-3 75 -2 -87z"/>
<path d="M1532 898 c-2 -87 -2 -88 25 -94 33 -9 53 16 53 65 0 50 -12 65 -43
57 -23 -5 -26 -3 -30 26 -2 18 -5 -6 -5 -54z m56 -30 c-2 -35 -7 -43 -23 -43
-22 0 -30 24 -21 61 4 15 14 24 27 24 18 0 20 -5 17 -42z"/>
<path d="M455 921 c3 -6 17 -11 31 -11 34 0 31 -28 -3 -32 -23 -2 -29 -9 -31
-34 -3 -33 22 -54 41 -35 5 5 16 7 24 4 11 -5 14 6 11 53 l-3 59 -39 3 c-25 2
-36 0 -31 -7z m55 -70 c0 -22 -30 -37 -41 -20 -11 18 1 39 22 39 12 0 19 -7
19 -19z"/>
<path d="M550 922 c0 -27 33 -112 43 -112 7 0 20 27 29 60 9 33 12 60 7 60 -8
0 -29 -63 -29 -88 0 -28 -19 0 -25 38 -6 35 -25 67 -25 42z"/>
<path d="M663 870 c0 -36 2 -50 4 -32 2 17 2 47 0 65 -2 17 -4 3 -4 -33z"/>
<path d="M706 914 c-3 -9 -6 -33 -6 -54 0 -45 25 -66 63 -54 21 7 20 8 -8 14
-39 7 -48 40 -11 40 30 0 40 13 32 46 -5 18 -13 24 -35 24 -17 0 -31 -6 -35
-16z m54 -24 c0 -13 -7 -20 -20 -20 -13 0 -20 7 -20 20 0 13 7 20 20 20 13 0
20 -7 20 -20z"/>
<path d="M800 868 c0 -32 4 -58 10 -58 6 0 10 21 10 46 0 37 4 47 20 51 30 8
24 22 -10 21 -30 -1 -30 -1 -30 -60z"/>
<path d="M962 918 c-17 -17 -15 -84 4 -102 17 -18 50 -21 59 -7 3 5 -7 11 -22
13 -39 4 -43 35 -6 40 24 3 28 8 28 33 0 25 -5 31 -25 33 -14 2 -31 -3 -38
-10z m48 -28 c0 -13 -7 -20 -20 -20 -13 0 -20 7 -20 20 0 13 7 20 20 20 13 0
20 -7 20 -20z"/>
<path d="M1050 868 c0 -70 18 -78 22 -10 3 40 6 47 25 50 20 3 22 -2 26 -50
l3 -53 2 62 2 62 -40 -2 -40 -1 0 -58z"/>
<path d="M1250 921 c0 -5 11 -11 25 -13 35 -4 35 -22 -1 -28 -22 -4 -30 -11
-32 -31 -4 -34 20 -54 46 -40 11 6 22 7 26 3 4 -3 6 20 4 53 -3 60 -3 60 -35
63 -18 2 -33 -1 -33 -7z m55 -61 c8 -13 -13 -40 -31 -40 -14 0 -19 31 -7 43
10 10 31 8 38 -3z"/>
<path d="M1350 868 c0 -32 4 -58 10 -58 6 0 10 20 10 44 0 34 5 47 23 59 22
16 22 16 -10 14 l-33 -2 0 -57z"/>
<path d="M1430 921 c0 -6 11 -11 25 -11 35 0 33 -28 -2 -32 -22 -2 -29 -9 -31
-29 -4 -34 20 -54 46 -40 11 6 22 7 26 3 4 -3 6 20 4 53 -3 60 -3 60 -35 63
-19 2 -33 -1 -33 -7z m50 -71 c0 -11 -2 -20 -4 -20 -2 0 -11 -3 -20 -6 -11 -4
-16 0 -16 13 0 23 8 33 27 33 7 0 13 -9 13 -20z"/>
<path d="M1641 911 c-26 -48 -4 -111 39 -111 31 0 33 18 3 22 -17 2 -29 10
-31 21 -3 13 3 17 28 17 29 0 31 2 28 33 -2 26 -8 33 -30 35 -18 2 -30 -3 -37
-17z m54 -21 c0 -8 -10 -16 -22 -18 -18 -3 -23 2 -23 18 0 16 5 21 23 18 12
-2 22 -10 22 -18z"/>
<path d="M870 870 c0 -5 11 -10 25 -10 14 0 25 5 25 10 0 6 -11 10 -25 10 -14
0 -25 -4 -25 -10z"/>
<path d="M1160 870 c0 -5 14 -10 30 -10 17 0 30 5 30 10 0 6 -13 10 -30 10
-16 0 -30 -4 -30 -10z"/>
</g>
</svg>
